<svg width="17" height="22" viewBox="0 0 17 22" fill="none" xmlns="http://www.w3.org/2000/svg">
<path d="M7.40625 10.2559V9.29492C7.40625 8.74414 7.33984 8.375 7.20703 8.1875C7.07422 7.99609 6.79492 7.91406 6.36914 7.94141L6.3457 7.83008C6.99023 7.63867 7.60352 7.54297 8.18555 7.54297C8.26367 7.75781 8.30273 7.98242 8.30273 8.2168V9.89844C8.30273 10.2656 8.33984 10.5 8.41406 10.6016L8.37891 10.666C8.07031 10.666 7.73633 10.7148 7.37695 10.8125C7.01758 10.9062 6.63281 11 6.22266 11.0938C5.8125 11.1914 5.39453 11.2402 4.96875 11.2402C4.37891 11.2402 3.83008 11.1328 3.32227 10.918C2.81445 10.6992 2.37695 10.3965 2.00977 10.0098C1.64648 9.62305 1.35938 9.14648 1.14844 8.58008C0.941406 8.01367 0.837891 7.39648 0.837891 6.72852C0.837891 6.11523 0.919922 5.55859 1.08398 5.05859C1.25195 4.55469 1.47852 4.13086 1.76367 3.78711C2.05273 3.44336 2.39844 3.1543 2.80078 2.91992C3.20312 2.68164 3.63477 2.50977 4.0957 2.4043C4.56055 2.29492 5.05469 2.24023 5.57812 2.24023C6.47266 2.24023 7.3125 2.42383 8.09766 2.79102C7.96094 3.2793 7.76562 3.79492 7.51172 4.33789L7.35352 4.2793C7.41602 3.81445 7.42969 3.43164 7.39453 3.13086C7.22266 3.0332 7.05273 2.95313 6.88477 2.89062C6.7168 2.82422 6.53906 2.77344 6.35156 2.73828C6.16406 2.69922 5.96094 2.67383 5.74219 2.66211C5.52734 2.64648 5.28516 2.63867 5.01562 2.63867C4.65625 2.63867 4.32031 2.68555 4.00781 2.7793C3.69922 2.86914 3.41016 3.01953 3.14062 3.23047C2.87109 3.44141 2.64062 3.70703 2.44922 4.02734C2.25781 4.34375 2.10742 4.74023 1.99805 5.2168C1.88867 5.68945 1.83398 6.22461 1.83398 6.82227C1.83398 7.39648 1.93164 7.9375 2.12695 8.44531C2.32227 8.95312 2.58008 9.38086 2.90039 9.72852C3.22461 10.0762 3.59766 10.3516 4.01953 10.5547C4.44141 10.7539 4.87695 10.8535 5.32617 10.8535C5.77148 10.8535 6.14453 10.8145 6.44531 10.7363C6.75 10.6543 7.07031 10.4941 7.40625 10.2559Z" fill="#C37022"/>
<path d="M11.4961 17.6426L13.4414 17.5781C13.7266 17.5703 13.9688 17.5391 14.168 17.4844C14.3672 17.4258 14.5391 17.3359 14.6836 17.2148C14.8281 17.0898 14.9453 16.9609 15.0352 16.8281C15.1289 16.6914 15.2324 16.5098 15.3457 16.2832L15.5156 16.3535L14.9414 17.918L14.8418 18H10.7051C10.6309 17.8359 10.5938 17.6445 10.5938 17.4258V11.2559C10.5938 10.7051 10.5273 10.334 10.3945 10.1426C10.2656 9.95117 9.98828 9.87109 9.5625 9.90234L9.53906 9.79102C10.1836 9.59961 10.7969 9.50391 11.3789 9.50391C11.457 9.71875 11.4961 9.94336 11.4961 10.1777V17.6426Z" fill="#C37022"/>
</svg>
